{"title":"Kushti (2010) 900mb DVD Rip Xvid AC3 Multi-Subs [Dare DEvils]","uid":5586215,"size":978597886,"categoryP":"video","categoryS":"movies","magnet":"?xt=urn:btih:d6cd38373d3ae09e4c0eef32de560a71b8ca52d0&amp;dn=Kushti+%282010%29+900mb+DVD+Rip+Xvid+AC3+Multi-Subs+%5BDare+DEvils%5D&amp;tr=udp%3A%2F%2Ftracker.openbittorrent.com%3A80&amp;tr=udp%3A%2F%2Fopen.demonii.com%3A1337&amp;tr=udp%3A%2F%2Ftracker.coppersurfer.tk%3A6969&amp;tr=udp%3A%2F%2Fexodus.desync.com%3A6969","seeders":0,"leechers":1,"uploader":"luvwithromio","files":-1,"time":1274707548,"description":"Format                           : AVI\nFormat/Info                      : Audio Video Interleave\nFile size                        : 893 MiB\nDuration                         : 2h 1mn\nOverall bit rate                 : 1 026 Kbps\n\nVideo\nID                               : 0\nFormat                           : MPEG-4 Visual\nFormat profile                   : Advanced Simple@L5\nFormat settings, BVOP            : Yes\nFormat settings, QPel            : No\nFormat settings, GMC             : No warppoints\nFormat settings, Matrix          : Default (H.263)\nCodec ID                         : XVID\nCodec ID/Hint                    : XviD\nDuration                         : 2h 1mn\nBit rate                         : 824 Kbps\nWidth                            : 640 pixels\nHeight                           : 272 pixels\nDisplay aspect ratio             : 2.35:1\nFrame rate                       : 23.976 fps\nResolution                       : 8 bits\nColorimetry                      : 4:2:0\nScan type                        : Progressive\nBits/(Pixel*Frame)               : 0.197\nStream size                      : 716 MiB (80%)\nWriting library                  : XviD 1.1.2 (UTC 2006-11-01)\n\nAudio\nID                               : 1\nFormat                           : AC-3\nFormat/Info                      : Audio Coding 3\nFormat_Settings_ModeExtension    : CM (complete main)\nCodec ID                         : 2000\nDuration                         : 2h 1mn\nBit rate mode                    : Constant\nBit rate                         : 192 Kbps\nChannel(s)                       : 6 channels\nChannel positions                : Front: L C R, Side: L R, LFE\nSampling rate                    : 48.0 KHz\nResolution                       : 16 bits\nStream size                      : 167 MiB (19%)\nAlignment                        : Aligned on interleaves\nInterleave, duration             : 32 ms (0.77 video frame)","torrent":{"xt":"urn:btih:d6cd38373d3ae09e4c0eef32de560a71b8ca52d0","amp;dn":"Kushti+%282010%29+900mb+DVD+Rip+Xvid+AC3+Multi-Subs+%5BDare+DEvils%5D","amp;tr":["udp%3A%2F%2Ftracker.openbittorrent.com%3A80","udp%3A%2F%2Fopen.demonii.com%3A1337","udp%3A%2F%2Ftracker.coppersurfer.tk%3A6969","udp%3A%2F%2Fexodus.desync.com%3A6969"],"infoHash":"d6cd38373d3ae09e4c0eef32de560a71b8ca52d0","infoHashBuffer":{"type":"Buffer","data":[214,205,56,55,61,58,224,158,76,14,239,50,222,86,10,113,184,202,82,208]},"announce":[],"urlList":[]}}